<svg width="120" height="25" viewBox="0 0 120 25" fill="none" xmlns="http://www.w3.org/2000/svg">
<path d="M10.9999 14.5385L11.0212 14.5014H10.9787L10.9999 14.5385Z" fill="#FF4438"/>
<path d="M0 14.5014L5.51058 24.0462L6.12129 22.9894L1.21966 14.5014H0Z" fill="#FF4438"/>
<path d="M7.34094 20.8758L3.66073 14.5014H2.4393L6.73023 21.9326L7.34094 20.8758Z" fill="#FF4438"/>
<path d="M8.56061 18.764L6.10006 14.5014H4.8804L7.9499 19.8208L8.56061 18.764Z" fill="#FF4438"/>
<path d="M9.78026 16.6504L8.53936 14.5014H7.3197L9.16954 17.7072L9.78026 16.6504Z" fill="#FF4438"/>
<path d="M10.9999 14.5385L10.9787 14.5014H9.75903L10.3892 15.5953L10.9999 14.5385Z" fill="#FF4438"/>
<path d="M20.7412 0L6.56738 24.5489H18.063L32.2368 0H20.7412Z" fill="#FF4438"/>
<path d="M45.1638 23.9045L42.421 18.2986H40.4476V23.9045H37.7049V9.85305H43.2104C46.0702 9.85305 47.7694 11.8064 47.7694 14.1544C47.7694 16.1279 46.5652 17.3521 45.2039 17.8437L48.3413 23.9045H45.1638ZM43.0331 12.3014H40.4476V16.0108H43.0331C44.2373 16.0108 45.0266 15.2415 45.0266 14.1544C45.0266 13.0707 44.2373 12.3014 43.0331 12.3014Z" fill="#00303C"/>
<path d="M52.5825 23.9045V9.85305H61.8375V12.3014H55.3286V15.596H60.8742V18.0444H55.3286V21.4595H61.8409V23.9078H52.5825V23.9045Z" fill="#00303C"/>
<path d="M75.5545 22.4261C74.4307 23.5901 73.0861 24.0249 71.5876 24.0249C70.049 24.0249 68.7847 23.473 67.798 22.4863C66.3764 21.0648 66.4166 19.3088 66.4166 16.8805C66.4166 14.4522 66.3764 12.6961 67.798 11.2746C68.7847 10.2879 70.0089 9.73602 71.5876 9.73602C74.8454 9.73602 76.5011 11.8666 76.8757 14.2348H74.1129C73.7985 12.9136 72.9891 12.1811 71.5876 12.1811C70.8384 12.1811 70.2263 12.4787 69.8316 12.9303C69.2998 13.5223 69.1593 14.1745 69.1593 16.8771C69.1593 19.5797 69.2964 20.252 69.8316 20.844C70.2263 21.2989 70.8384 21.5732 71.5876 21.5732C72.4171 21.5732 73.0861 21.2789 73.541 20.7838C73.9958 20.2721 74.1731 19.6399 74.1731 18.9074V18.3756H71.5876V16.0878H76.8958V18.1415C76.8991 20.1751 76.5412 21.3993 75.5545 22.4261Z" fill="#00303C"/>
<path d="M94.1047 23.9045H92.051L87.4117 9.85305H90.2548L93.0778 19.0111L95.9008 9.85305H98.7606L94.1047 23.9045Z" fill="#00303C"/>
<path d="M103.223 23.9045V9.85305H105.965V23.9045H103.223Z" fill="#00303C"/>
<path d="M110.762 23.9045V21.6936L116.762 12.2981H111.019V9.84972H120V12.0205L113.979 21.4561H120V23.9045H110.762Z" fill="#00303C"/>
</svg>
